<?xml version="1.0" encoding="utf-8"?>
<!-- Generator: Adobe Illustrator 16.0.0, SVG Export Plug-In . SVG Version: 6.00 Build 0)  -->
<!DOCTYPE svg PUBLIC "-//W3C//DTD SVG 1.1//EN" "http://www.w3.org/Graphics/SVG/1.1/DTD/svg11.dtd">
<svg version="1.1" id="Layer_1" xmlns="http://www.w3.org/2000/svg" xmlns:xlink="http://www.w3.org/1999/xlink" x="0px" y="0px"
	 width="500px" height="500px" viewBox="0 0 500 500" enable-background="new 0 0 500 500" xml:space="preserve">
<g>
	<circle fill="#3A3937" cx="248.414" cy="245.82" r="133.977"/>
	<circle fill="#3A3937" cx="114.437" cy="239.826" r="30.322"/>
	<circle fill="#3A3937" cx="121.489" cy="197.518" r="30.322"/>
	<circle fill="#3A3937" cx="141.585" cy="167.197" r="30.321"/>
	<circle fill="#3A3937" cx="171.907" cy="136.876" r="30.321"/>
	<circle fill="#3A3937" cx="214.215" cy="115.722" r="30.322"/>
	<circle fill="#3A3937" cx="271.994" cy="115.722" r="30.322"/>
	<circle fill="#3A3937" cx="322.06" cy="132.646" r="30.321"/>
	<circle fill="#3A3937" cx="352.38" cy="158.736" r="30.321"/>
	<circle fill="#3A3937" cx="375.65" cy="205.275" r="30.322"/>
	<circle fill="#3A3937" cx="382.391" cy="245.82" r="30.321"/>
	<circle fill="#3A3937" cx="385.563" cy="288.094" r="30.321"/>
	<circle fill="#3A3937" cx="362.252" cy="318.414" r="30.321"/>
	<circle fill="#3A3937" cx="244.536" cy="111.844" r="30.321"/>
	<circle fill="#3A3937" cx="126.425" cy="307.519" r="30.322"/>
	<circle fill="#3A3937" cx="114.437" cy="277.198" r="30.322"/>
	<circle fill="#EDC98E" cx="248.414" cy="300.468" r="106.828"/>
	<circle fill="#FCFCFC" cx="212.094" cy="282.49" r="38.318"/>
	<circle fill="#EDC98E" cx="352.38" cy="302.264" r="19.774"/>
	<circle fill="#3A3937" cx="187.011" cy="215.499" r="19.774"/>
	<circle fill="#3A3937" cx="215.584" cy="197.518" r="19.774"/>
	<circle fill="#3A3937" cx="248.414" cy="193.64" r="19.774"/>
	<circle fill="#3A3937" cx="282.542" cy="197.518" r="19.774"/>
	<circle fill="#3A3937" cx="308.479" cy="209.505" r="19.774"/>
	<circle fill="#EDC98E" cx="141.585" cy="302.264" r="19.774"/>
	<circle fill="#232323" cx="214.215" cy="282.49" r="18.406"/>
	<circle fill="#FCFCFC" cx="290.073" cy="282.49" r="38.317"/>
	<circle fill="#232323" cx="290.073" cy="282.49" r="18.405"/>
	<g>
		<path fill="#FCFCFC" d="M251.756,392.389c29.77,0,54.146-23.019,56.348-52.226H195.409
			C197.608,369.37,221.986,392.389,251.756,392.389z"/>
	</g>
</g>
</svg>
