<?xml version="1.0" encoding="utf-8"?>
<!-- Generator: Adobe Illustrator 16.0.0, SVG Export Plug-In . SVG Version: 6.00 Build 0)  -->
<!DOCTYPE svg PUBLIC "-//W3C//DTD SVG 1.1//EN" "http://www.w3.org/Graphics/SVG/1.1/DTD/svg11.dtd">
<svg version="1.1" id="Layer_1" xmlns="http://www.w3.org/2000/svg" xmlns:xlink="http://www.w3.org/1999/xlink" x="0px" y="0px"
	 width="500px" height="500px" viewBox="0 0 500 500" enable-background="new 0 0 500 500" xml:space="preserve">
<circle fill="#EFCA2B" cx="249.689" cy="249.905" r="169.932"/>
<circle fill="#F4E522" cx="249.688" cy="249.905" r="136.459"/>
<text transform="matrix(1 0 0 1 205.6045 310.9268)" fill="#F4A800" font-family="'MyriadPro-Regular'" font-size="238.9255">s</text>
<path fill="#F4A800" d="M269,192.5c0,4.694-3.806,8.5-8.5,8.5l0,0c-4.694,0-8.5-3.806-8.5-8.5v-7c0-4.694,3.806-8.5,8.5-8.5l0,0
	c4.694,0,8.5,3.806,8.5,8.5V192.5z"/>
<path fill="#F4A800" d="M269,318c0,4.694-3.806,8.5-8.5,8.5l0,0c-4.694,0-8.5-3.806-8.5-8.5v-7c0-4.694,3.806-8.5,8.5-8.5l0,0
	c4.694,0,8.5,3.806,8.5,8.5V318z"/>
</svg>
