<svg id="iconos" xmlns="http://www.w3.org/2000/svg" viewBox="0 0 500 500"><defs><style>.cls-1{fill:#383230;}.cls-2{fill:#2eed72;}.cls-3{fill:#2d2624;}.cls-4{fill:#f99f78;}.cls-5{fill:#fcc0a2;}.cls-6{fill:#fff;}.cls-7{fill:#474646;}.cls-8{fill:#f44545;}.cls-9{fill:#231f1e;}</style></defs><title>nosotros</title><g id="nosotros"><circle class="cls-1" cx="388.61" cy="314.88" r="22.67"/><circle class="cls-2" cx="251.93" cy="234.31" r="187.5"/><circle class="cls-2" cx="382.1" cy="393.99" r="64.3"/><circle class="cls-2" cx="117.9" cy="86.45" r="64.3"/><circle class="cls-3" cx="269.21" cy="212.05" r="158.09"/><circle class="cls-1" cx="260.24" cy="207.05" r="158.09"/><circle class="cls-1" cx="394.14" cy="292.21" r="22.67"/><circle class="cls-1" cx="411.27" cy="255.54" r="22.67"/><circle class="cls-1" cx="418.33" cy="222.35" r="22.67"/><circle class="cls-1" cx="416.81" cy="185.47" r="22.67"/><circle class="cls-1" cx="411.27" cy="150.75" r="22.67"/><circle class="cls-1" cx="397.61" cy="109.98" r="22.67"/><circle class="cls-1" cx="370.59" cy="84.31" r="22.67"/><circle class="cls-1" cx="333.65" cy="65.98" r="22.67"/><circle class="cls-1" cx="299.32" cy="51.31" r="22.67"/><circle class="cls-1" cx="260.24" cy="44.81" r="22.67"/><circle class="cls-1" cx="219.2" cy="51.31" r="22.67"/><circle class="cls-1" cx="180.53" cy="65.98" r="22.67"/><circle class="cls-1" cx="143.33" cy="84.31" r="22.67"/><circle class="cls-1" cx="120.67" cy="113.98" r="22.67"/><circle class="cls-1" cx="103.56" cy="152.31" r="22.67"/><circle class="cls-1" cx="95.24" cy="189.39" r="22.67"/><circle class="cls-1" cx="95.24" cy="226.33" r="22.67"/><circle class="cls-1" cx="107.92" cy="263.36" r="22.67"/><circle class="cls-1" cx="125.16" cy="298.02" r="22.67"/><circle class="cls-1" cx="371.47" cy="320.69" r="22.67"/><rect class="cls-4" x="147.03" y="128.31" width="228.72" height="306.66" rx="96.51" ry="96.51"/><rect class="cls-5" x="133.9" y="128.31" width="228.72" height="306.66" rx="96.51" ry="96.51"/><circle class="cls-4" cx="198.64" cy="237.31" r="34.33"/><circle class="cls-4" cx="310.99" cy="237.31" r="34.33"/><circle class="cls-6" cx="306.65" cy="234.31" r="34.33"/><circle class="cls-3" cx="255.63" cy="368.77" r="100.13"/><circle class="cls-1" cx="244.49" cy="368.77" r="100.13"/><path class="cls-7" d="M274.51,365.14a44.9,44.9,0,0,1,18.67,4.05,44.87,44.87,0,0,0-8.79-23.26,15.17,15.17,0,0,1-24.15,0,15.18,15.18,0,0,1-25.73-2.6A15.17,15.17,0,0,1,210.67,348a45.08,45.08,0,0,0,18.92,65.92c-.1-1.22-.16-2.45-.16-3.7A45.08,45.08,0,0,1,274.51,365.14Z"/><path class="cls-7" d="M234.59,329.92l-.14,0,.06.12Z"/><path class="cls-8" d="M293.18,369.19a45.08,45.08,0,0,0-63.75,41c0,1.25.06,2.48.16,3.7a45.08,45.08,0,0,0,63.75-41C293.35,371.64,293.28,370.41,293.18,369.19Z"/><path class="cls-6" d="M234.51,330.09a15.07,15.07,0,0,0,0,13.27,15.07,15.07,0,0,0,0-13.27Z"/><path class="cls-6" d="M234.51,330.09l-.06-.12a45.18,45.18,0,0,0-23.78,18,15.17,15.17,0,0,0,23.84-4.65,15.07,15.07,0,0,1,0-13.27Z"/><path class="cls-6" d="M259.14,329.13a45.26,45.26,0,0,0-24.55.79l-.08.16a15.07,15.07,0,0,1,0,13.27,15.18,15.18,0,0,0,25.73,2.6,15.13,15.13,0,0,1-1.1-16.83Z"/><path class="cls-6" d="M261.74,329.87a15.12,15.12,0,0,1-1.5,16.09,15.17,15.17,0,0,0,24.15,0A45.14,45.14,0,0,0,261.74,329.87Z"/><path class="cls-6" d="M261.74,329.87c-.86-.27-1.72-.52-2.6-.74a15.13,15.13,0,0,0,1.1,16.83,15.12,15.12,0,0,0,1.5-16.09Z"/><rect class="cls-9" x="154.47" y="177.97" width="74.77" height="15" rx="7.5" ry="7.5"/><rect class="cls-9" x="268.51" y="178.68" width="74.77" height="15" rx="7.5" ry="7.5"/><rect class="cls-1" x="266.21" y="177.97" width="74.77" height="15" rx="7.5" ry="7.5"/><rect class="cls-4" x="233.9" y="222.35" width="32.31" height="84.79" rx="12" ry="12"/><rect class="cls-5" x="233.9" y="218.72" width="28.72" height="83.33" rx="12" ry="12"/><rect class="cls-1" x="152.49" y="177.97" width="74.77" height="15" rx="7.5" ry="7.5"/><circle class="cls-3" cx="196.53" cy="234.31" r="9.33"/><circle class="cls-3" cx="303.6" cy="234.31" r="9.33"/><circle class="cls-5" cx="126.84" cy="241.58" r="19.19"/><circle class="cls-4" cx="374.95" cy="247" r="19.19"/><circle class="cls-5" cx="370.59" cy="244.17" r="19.19"/><circle class="cls-6" cx="196.53" cy="234.31" r="34.33"/><circle class="cls-3" cx="196.53" cy="234.31" r="9.33"/><circle class="cls-1" cx="188.67" cy="146" r="22.67"/><circle class="cls-1" cx="155.49" cy="149" r="22.67"/><circle class="cls-1" cx="223.42" cy="128.31" r="22.67"/><circle class="cls-1" cx="266.21" cy="128.31" r="22.67"/><circle class="cls-1" cx="305.89" cy="132.64" r="22.67"/><circle class="cls-1" cx="343.27" cy="150.75" r="22.67"/><circle class="cls-1" cx="365.94" cy="180.31" r="22.67"/><circle class="cls-1" cx="370.59" cy="212.05" r="22.67"/></g></svg>