<svg id="iconos" xmlns="http://www.w3.org/2000/svg" viewBox="0 0 500 500"><defs><style>.cls-1{fill:#f93535;}.cls-2{fill:#fff;}.cls-3{fill:#966541;}.cls-4{fill:#5b5b5b;}.cls-5{fill:#f9f9f9;}</style></defs><title>Objectivos</title><circle class="cls-1" cx="239.12" cy="255.05" r="201.32"/><circle class="cls-2" cx="237.87" cy="255.05" r="153.01"/><circle class="cls-1" cx="246.54" cy="261.16" r="66.07"/><rect class="cls-3" x="342.04" y="5.51" width="29.51" height="285.9" rx="14.76" ry="14.76" transform="translate(209.48 -208.81) rotate(45)"/><path class="cls-4" d="M233.92,247.58l9.41-35.13A21.15,21.15,0,0,1,278.71,203l25.72,25.72a21.15,21.15,0,0,1-9.48,35.38l-35.13,9.41A21.15,21.15,0,0,1,233.92,247.58Z"/><rect class="cls-5" x="410.95" y="74.56" width="29.47" height="10" transform="translate(180.94 -277.7) rotate(45)"/><rect class="cls-5" x="424.14" y="61.37" width="29.51" height="10" transform="translate(175.48 -290.91) rotate(45)"/></svg>