<svg id="iconos" xmlns="http://www.w3.org/2000/svg" viewBox="0 0 500 500"><defs><style>.cls-1{fill:#d1ed2e;}.cls-2{fill:#f99f78;}.cls-3{fill:#fcc0a2;}.cls-4{fill:#fff;}.cls-5{fill:#2d2624;}.cls-6{fill:#383230;}.cls-7{fill:#474646;}.cls-8{fill:#f44545;}.cls-9{fill:#231f1e;}.cls-10{font-size:79.62px;font-family:MyriadPro-Regular, Myriad Pro;}.cls-10,.cls-11{fill:#19f280;}.cls-12{fill:#f71647;}.cls-13{fill:#d8073e;}</style></defs><title>precios</title><g id="seguridad"><circle class="cls-1" cx="255.2" cy="243.06" r="187.5"/><circle class="cls-1" cx="375.91" cy="390.05" r="64.3"/><circle class="cls-1" cx="111.72" cy="82.51" r="64.3"/><rect class="cls-2" x="135.47" y="109.98" width="239.46" height="321.05" rx="96.51" ry="96.51"/><rect class="cls-3" x="122.35" y="109.98" width="239.46" height="321.05" rx="96.51" ry="96.51"/><circle class="cls-2" cx="192.46" cy="233.36" r="34.33"/><circle class="cls-2" cx="304.8" cy="233.36" r="34.33"/><circle class="cls-4" cx="300.47" cy="230.36" r="34.33"/><circle class="cls-5" cx="249.44" cy="364.83" r="100.13"/><circle class="cls-6" cx="238.31" cy="364.83" r="100.13"/><path class="cls-7" d="M268.33,361.2A44.9,44.9,0,0,1,287,365.25,44.87,44.87,0,0,0,278.2,342a15.17,15.17,0,0,1-24.15,0,15.18,15.18,0,0,1-25.73-2.6,15.17,15.17,0,0,1-23.84,4.65A45.08,45.08,0,0,0,223.41,410c-.1-1.22-.16-2.45-.16-3.7A45.08,45.08,0,0,1,268.33,361.2Z"/><path class="cls-7" d="M228.41,326l-.14,0,.06.12Z"/><path class="cls-8" d="M287,365.25a45.08,45.08,0,0,0-63.75,41c0,1.25.06,2.48.16,3.7a45.08,45.08,0,0,0,63.75-41C287.16,367.7,287.1,366.47,287,365.25Z"/><path class="cls-4" d="M228.33,326.14a15.07,15.07,0,0,0,0,13.27,15.07,15.07,0,0,0,0-13.27Z"/><path class="cls-4" d="M228.33,326.14l-.06-.12a45.18,45.18,0,0,0-23.78,18,15.17,15.17,0,0,0,23.84-4.65,15.07,15.07,0,0,1,0-13.27Z"/><path class="cls-4" d="M253,325.19a45.26,45.26,0,0,0-24.55.79l-.08.16a15.07,15.07,0,0,1,0,13.27,15.18,15.18,0,0,0,25.73,2.6,15.13,15.13,0,0,1-1.1-16.83Z"/><path class="cls-4" d="M255.56,325.93a15.12,15.12,0,0,1-1.5,16.09,15.17,15.17,0,0,0,24.15,0A45.14,45.14,0,0,0,255.56,325.93Z"/><path class="cls-4" d="M255.56,325.93c-.86-.27-1.72-.52-2.6-.74a15.13,15.13,0,0,0,1.1,16.83,15.12,15.12,0,0,0,1.5-16.09Z"/><rect class="cls-9" x="148.29" y="174.03" width="74.77" height="15" rx="7.5" ry="7.5"/><rect class="cls-9" x="262.32" y="174.74" width="74.77" height="15" rx="7.5" ry="7.5"/><rect class="cls-6" x="260.03" y="174.03" width="74.77" height="15" rx="7.5" ry="7.5"/><rect class="cls-2" x="227.72" y="218.41" width="32.31" height="84.79" rx="12" ry="12"/><rect class="cls-3" x="227.72" y="214.78" width="28.72" height="83.33" rx="12" ry="12"/><rect class="cls-6" x="146.31" y="174.03" width="74.77" height="15" rx="7.5" ry="7.5"/><circle class="cls-5" cx="190.35" cy="230.36" r="9.33"/><circle class="cls-3" cx="120.66" cy="237.64" r="19.19"/><circle class="cls-2" cx="368.76" cy="243.06" r="19.19"/><circle class="cls-3" cx="364.41" cy="240.22" r="19.19"/><circle class="cls-4" cx="190.35" cy="230.36" r="34.33"/><text class="cls-10" transform="translate(173.76 250)">s</text><text class="cls-10" transform="translate(284.76 250)">s</text><rect class="cls-11" x="188.1" y="207.11" width="4.5" height="46.5" rx="2.25" ry="2.25"/><rect class="cls-11" x="298.22" y="207.11" width="4.5" height="46.5" rx="2.25" ry="2.25"/></g><circle class="cls-4" cx="375.91" cy="246.5" r="18"/><circle class="cls-4" cx="111.72" cy="241.86" r="18"/><rect class="cls-4" x="375.56" y="243.06" width="16.08" height="53.2" rx="8.04" ry="8.04"/><rect class="cls-4" x="93.43" y="237.9" width="16.08" height="53.2" rx="8.04" ry="8.04"/><rect class="cls-12" x="138.18" y="142.17" width="254.67" height="11.67" rx="5.83" ry="5.83"/><path class="cls-13" d="M167.9,82.51H317.18a31.34,31.34,0,0,1,31.34,31.34v28.32a0,0,0,0,1,0,0H146.31a0,0,0,0,1,0,0V104.1A21.59,21.59,0,0,1,167.9,82.51Z"/><rect class="cls-2" x="203" y="118.67" width="76.33" height="16.33" rx="8.17" ry="8.17"/><rect class="cls-3" x="198.12" y="118.67" width="76.33" height="16.33" rx="8.17" ry="8.17"/></svg>