<svg id="iconos" xmlns="http://www.w3.org/2000/svg" viewBox="0 0 500 500"><defs><style>.cls-1{fill:#2befe9;}.cls-2{fill:#f99f78;}.cls-3{fill:#fcc0a2;}.cls-4{fill:#fff;}.cls-5{fill:#2d2624;}.cls-6{fill:#383230;}.cls-7{fill:#474646;}.cls-8{fill:#f44545;}.cls-9{fill:#231f1e;}.cls-10{fill:#492821;}.cls-11{fill:#301510;}.cls-12{fill:#f4e73b;}</style></defs><title>seguridad</title><g id="seguridad"><circle class="cls-1" cx="263.85" cy="248.36" r="187.5"/><circle class="cls-1" cx="384.56" cy="395.35" r="64.3"/><circle class="cls-1" cx="120.37" cy="87.81" r="64.3"/><rect class="cls-2" x="149.49" y="129.67" width="228.72" height="306.66" rx="96.51" ry="96.51"/><rect class="cls-3" x="136.37" y="129.67" width="228.72" height="306.66" rx="96.51" ry="96.51"/><circle class="cls-2" cx="201.1" cy="238.67" r="34.33"/><circle class="cls-2" cx="313.45" cy="238.67" r="34.33"/><circle class="cls-4" cx="309.11" cy="235.67" r="34.33"/><circle class="cls-5" cx="258.09" cy="370.13" r="100.13"/><circle class="cls-6" cx="246.96" cy="370.13" r="100.13"/><path class="cls-7" d="M277,366.5a44.9,44.9,0,0,1,18.67,4.05,44.87,44.87,0,0,0-8.79-23.26,15.17,15.17,0,0,1-24.15,0,15.18,15.18,0,0,1-25.73-2.6,15.17,15.17,0,0,1-23.84,4.65,45.08,45.08,0,0,0,18.92,65.92c-.1-1.22-.16-2.45-.16-3.7A45.08,45.08,0,0,1,277,366.5Z"/><path class="cls-7" d="M237.06,331.28l-.14,0,.06.12Z"/><path class="cls-8" d="M295.65,370.55a45.08,45.08,0,0,0-63.75,41c0,1.25.06,2.48.16,3.7a45.08,45.08,0,0,0,63.75-41C295.81,373,295.75,371.77,295.65,370.55Z"/><path class="cls-4" d="M237,331.44a15.07,15.07,0,0,0,0,13.27,15.07,15.07,0,0,0,0-13.27Z"/><path class="cls-4" d="M237,331.44l-.06-.12a45.18,45.18,0,0,0-23.78,18A15.17,15.17,0,0,0,237,344.72a15.07,15.07,0,0,1,0-13.27Z"/><path class="cls-4" d="M261.61,330.49a45.26,45.26,0,0,0-24.55.79l-.08.16a15.07,15.07,0,0,1,0,13.27,15.18,15.18,0,0,0,25.73,2.6,15.13,15.13,0,0,1-1.1-16.83Z"/><path class="cls-4" d="M264.21,331.23a15.12,15.12,0,0,1-1.5,16.09,15.17,15.17,0,0,0,24.15,0A45.14,45.14,0,0,0,264.21,331.23Z"/><path class="cls-4" d="M264.21,331.23c-.86-.27-1.72-.52-2.6-.74a15.13,15.13,0,0,0,1.1,16.83,15.12,15.12,0,0,0,1.5-16.09Z"/><rect class="cls-9" x="156.94" y="179.33" width="74.77" height="15" rx="7.5" ry="7.5"/><rect class="cls-9" x="270.97" y="180.04" width="74.77" height="15" rx="7.5" ry="7.5"/><rect class="cls-6" x="268.68" y="179.33" width="74.77" height="15" rx="7.5" ry="7.5"/><rect class="cls-10" x="171.27" y="42.5" width="176.58" height="99.84" rx="12.66" ry="12.66"/><rect class="cls-2" x="236.37" y="223.71" width="32.31" height="84.79" rx="12" ry="12"/><rect class="cls-3" x="236.37" y="220.08" width="28.72" height="83.33" rx="12" ry="12"/><path class="cls-11" d="M173.35,136.59a12.74,12.74,0,0,0,7.23,5.27Q176.86,139.38,173.35,136.59Z"/><path class="cls-11" d="M299.71,142.33h35.48a12.7,12.7,0,0,0,12.66-12.66V64A108,108,0,0,1,299.71,142.33Z"/><rect class="cls-11" x="134.56" y="134.67" width="250" height="25.33" rx="12.66" ry="12.66"/><rect class="cls-10" x="124.56" y="134.67" width="250" height="25.33" rx="12.66" ry="12.66"/><rect class="cls-6" x="154.96" y="179.33" width="74.77" height="15" rx="7.5" ry="7.5"/><path class="cls-11" d="M283.6,73.73a7.06,7.06,0,0,0-7,6.3l-11.72-1.7-4.74-9.61a7.06,7.06,0,1,0-7.28,0l-4.74,9.61-11.83,1.72a7.07,7.07,0,1,0-1.63,6.14l8.28,8.08L241.08,105c-.23,0-.46,0-.69,0a7.07,7.07,0,1,0,6.46,4.22l9.63-5.06,10.59,5.57a7.1,7.1,0,1,0,5-3.69l-2-11.73,8.64-8.42a7.06,7.06,0,1,0,4.92-12.12Z"/><circle class="cls-5" cx="199" cy="235.67" r="9.33"/><circle class="cls-5" cx="306.06" cy="235.67" r="9.33"/><circle class="cls-3" cx="129.31" cy="242.94" r="19.19"/><circle class="cls-2" cx="377.41" cy="248.36" r="19.19"/><circle class="cls-3" cx="373.06" cy="245.52" r="19.19"/><path class="cls-12" d="M281.52,73.07a7.06,7.06,0,0,0-7,6.3l-11.72-1.7L258,68.06a7.06,7.06,0,1,0-7.28,0L246,77.67l-11.83,1.72a7.07,7.07,0,1,0-1.63,6.14l8.28,8.08L239,104.33c-.23,0-.46,0-.69,0a7.07,7.07,0,1,0,6.46,4.22l9.63-5.06L265,109a7.1,7.1,0,1,0,5-3.69l-2-11.73,8.64-8.42a7.06,7.06,0,1,0,4.92-12.12Z"/><circle class="cls-4" cx="199" cy="235.67" r="34.33"/><circle class="cls-5" cx="199" cy="235.67" r="9.33"/></g></svg>